<svg viewBox="0 0 200 200" xmlns="http://www.w3.org/2000/svg">
    <g fill="transparent">
        <g transform-origin="center" transform="scale(1) rotate(0)">
            <image href="../BB8 Ball Pattern.jpg" height="2550" width="3300" transform="scale(0.47169811320754716981132075471698, 0.47169811320754716981132075471698) translate(-1044,-1062)"/>
        </g>
        <rect height="201" width="201" x="-0.5" y="-0.5" stroke-width="1" stroke="black" fill="transparent" />

        <g stroke="rgba(255, 0, 255, 0.2)">
            <line x1="10" x2="10" y1="0" y2="200" />
            <line x1="20" x2="20" y1="0" y2="200" />
            <line x1="30" x2="30" y1="0" y2="200" />
            <line x1="40" x2="40" y1="0" y2="200" />
            <line x1="50" x2="50" y1="0" y2="200" stroke="rgba(255, 0, 255, 0.5)" />
            <line x1="60" x2="60" y1="0" y2="200" />
            <line x1="70" x2="70" y1="0" y2="200" />
            <line x1="80" x2="80" y1="0" y2="200" />
            <line x1="90" x2="90" y1="0" y2="200" />
            <line x1="100" x2="100" y1="0" y2="200" stroke="rgba(255, 0, 255, 0.5)" />
            <line x1="110" x2="110" y1="0" y2="200" />
            <line x1="120" x2="120" y1="0" y2="200" />
            <line x1="130" x2="130" y1="0" y2="200" />
            <line x1="140" x2="140" y1="0" y2="200" />
            <line x1="150" x2="150" y1="0" y2="200" stroke="rgba(255, 0, 255, 0.5)" />
            <line x1="160" x2="160" y1="0" y2="200" />
            <line x1="170" x2="170" y1="0" y2="200" />
            <line x1="180" x2="180" y1="0" y2="200" />
            <line x1="190" x2="190" y1="0" y2="200" />

            <line y1="10" y2="10" x1="0" x2="200" />
            <line y1="20" y2="20" x1="0" x2="200" />
            <line y1="30" y2="30" x1="0" x2="200" />
            <line y1="40" y2="40" x1="0" x2="200" />
            <line y1="50" y2="50" x1="0" x2="200" stroke="rgba(255, 0, 255, 0.5)" />
            <line y1="60" y2="60" x1="0" x2="200" />
            <line y1="70" y2="70" x1="0" x2="200" />
            <line y1="80" y2="80" x1="0" x2="200" />
            <line y1="90" y2="90" x1="0" x2="200" />
            <line y1="100" y2="100" x1="0" x2="200" stroke="rgba(255, 0, 255, 0.5)" />
            <line y1="110" y2="110" x1="0" x2="200" />
            <line y1="120" y2="120" x1="0" x2="200" />
            <line y1="130" y2="130" x1="0" x2="200" />
            <line y1="140" y2="140" x1="0" x2="200" />
            <line y1="150" y2="150" x1="0" x2="200" stroke="rgba(255, 0, 255, 0.5)" />
            <line y1="160" y2="160" x1="0" x2="200" />
            <line y1="170" y2="170" x1="0" x2="200" />
            <line y1="180" y2="180" x1="0" x2="200" />
            <line y1="190" y2="190" x1="0" x2="200" />
        </g>

        <g  stroke="rgba(0, 255, 0, 0.2)" transform-origin="center">
            <line y1="100" y2="100" x1="0" x2="200" transform-origin="center" transform="rotate(-5)" />
            <line y1="100" y2="100" x1="0" x2="200" transform-origin="center" transform="rotate(-10)" />
            <line y1="100" y2="100" x1="0" x2="200" transform-origin="center" transform="rotate(-15)" stroke="rgba(0, 255, 0, 0.4)" />
            <line y1="100" y2="100" x1="0" x2="200" transform-origin="center" transform="rotate(-20)" />
            <line y1="100" y2="100" x1="0" x2="200" transform-origin="center" transform="rotate(-25)" />
            <line y1="100" y2="100" x1="0" x2="200" transform-origin="center" transform="rotate(-30)" stroke="rgba(0, 255, 0, 0.4)" />
            <line y1="100" y2="100" x1="0" x2="200" transform-origin="center" transform="rotate(-35)" />
            <line y1="100" y2="100" x1="0" x2="200" transform-origin="center" transform="rotate(-40)" />
            <line y1="100" y2="100" x1="0" x2="200" transform-origin="center" transform="rotate(-45)" stroke="rgba(0, 255, 0, 0.4)" />
            <line y1="100" y2="100" x1="0" x2="200" transform-origin="center" transform="rotate(-50)" />
            <line y1="100" y2="100" x1="0" x2="200" transform-origin="center" transform="rotate(-55)" />
            <line y1="100" y2="100" x1="0" x2="200" transform-origin="center" transform="rotate(-60)" stroke="rgba(0, 255, 0, 0.4)" />
            <line y1="100" y2="100" x1="0" x2="200" transform-origin="center" transform="rotate(-65)" />
            <line y1="100" y2="100" x1="0" x2="200" transform-origin="center" transform="rotate(-70)" />
            <line y1="100" y2="100" x1="0" x2="200" transform-origin="center" transform="rotate(-75)" stroke="rgba(0, 255, 0, 0.4)" />
            <line y1="100" y2="100" x1="0" x2="200" transform-origin="center" transform="rotate(-80)" />
            <line y1="100" y2="100" x1="0" x2="200" transform-origin="center" transform="rotate(-85)" />
            <line y1="100" y2="100" x1="0" x2="200" transform-origin="center" transform="rotate(-95)" />
            <line y1="100" y2="100" x1="0" x2="200" transform-origin="center" transform="rotate(-100)" />
            <line y1="100" y2="100" x1="0" x2="200" transform-origin="center" transform="rotate(-105)" stroke="rgba(0, 255, 0, 0.4)" />
            <line y1="100" y2="100" x1="0" x2="200" transform-origin="center" transform="rotate(-110)" />
            <line y1="100" y2="100" x1="0" x2="200" transform-origin="center" transform="rotate(-115)" />
            <line y1="100" y2="100" x1="0" x2="200" transform-origin="center" transform="rotate(-120)" stroke="rgba(0, 255, 0, 0.4)" />
            <line y1="100" y2="100" x1="0" x2="200" transform-origin="center" transform="rotate(-125)" />
            <line y1="100" y2="100" x1="0" x2="200" transform-origin="center" transform="rotate(-130)" />
            <line y1="100" y2="100" x1="0" x2="200" transform-origin="center" transform="rotate(-135)" stroke="rgba(0, 255, 0, 0.4)" />
            <line y1="100" y2="100" x1="0" x2="200" transform-origin="center" transform="rotate(-140)" />
            <line y1="100" y2="100" x1="0" x2="200" transform-origin="center" transform="rotate(-145)" />
            <line y1="100" y2="100" x1="0" x2="200" transform-origin="center" transform="rotate(-150)" stroke="rgba(0, 255, 0, 0.4)" />
            <line y1="100" y2="100" x1="0" x2="200" transform-origin="center" transform="rotate(-155)" />
            <line y1="100" y2="100" x1="0" x2="200" transform-origin="center" transform="rotate(-160)" />
            <line y1="100" y2="100" x1="0" x2="200" transform-origin="center" transform="rotate(-165)" stroke="rgba(0, 255, 0, 0.4)" />
            <line y1="100" y2="100" x1="0" x2="200" transform-origin="center" transform="rotate(-170)" />
            <line y1="100" y2="100" x1="0" x2="200" transform-origin="center" transform="rotate(-175)" />
        </g>

        <circle cx="100" cy="100" r="90" stroke="rgba(0, 0, 255, 0.375)" />
        <circle cx="100" cy="100" r="87.5" stroke="rgba(0, 0, 255, 0.375)" stroke-width="0.5" />
        <circle cx="100" cy="100" r="82.5" stroke="rgba(0, 0, 255, 0.375)" />
        <circle cx="100" cy="100" r="69" stroke="rgba(0, 0, 255, 0.375)" stroke-width="0.5" />
        <circle cx="100" cy="100" r="50" stroke="rgba(0, 0, 255, 0.375)" stroke-width="0.5" />
    </g>
    <g fill="transparent" stroke="red" style="opacity: 0.75">
        <path d="M131.294843,185.981875 A91.500000,91.500000 0 0 1 84.111192,190.109909 L71.681986,121.209040 L118.099800,112.835611 Z M15.481490,77.353334 A87.500000,87.500000 0 0 1 24.222777,56.250000 L56.698730,75.000000 A50.000000,50.000000 0 0 1 75.000000,56.698730 L56.250000,24.222777 A87.500000,87.500000 0 0 1 100.000000,12.500000 L105.160803,41.108730 A15.000000,15.000000 0 0 0 110.486619,70.632207 L117.212164,107.915031 L70.794350,116.288460 L65.070254,112.259227 L63.919044,113.894683 L20.054377,83.018023 L21.205587,81.382567 Z M162.353829,136.000000 A72.000000,72.000000 0 0 0 164.152470,132.687316 L181.527097,141.540131 A91.500000,91.500000 0 0 1 179.241324,145.750000 Z M168.667620,121.650818 A72.000000,72.000000 0 0 0 169.706630,118.027360 L188.585509,122.909770 A91.500000,91.500000 0 0
1 187.265101,127.514581 Z M171.726018,106.275213 A72.000000,72.000000 0 0 0 171.956140,102.512764 L191.444261,103.193304 A91.500000,91.500000 0 0 1 191.151815,107.974750 Z M171.384030,90.602114 A72.000000,72.000000 0 0 0 170.794353,86.879042 L189.967824,83.325449
A91.500000,91.500000 0 0 1 190.717205,88.056853 Z" />
    </g>
    <g fill="transparent" stroke="black" style="opacity: 0.75">
        <path d="M111.774826,77.773337 A13.000000,13.000000 0 0 1 116.390533,103.360350 Z" />
    </g>
</svg>