<svg viewBox="0 0 200 200" xmlns="http://www.w3.org/2000/svg">
    <line x1="0" y1="0" x2="200" y2="0" />
    <line x1="0" y1="0" x2="0" y2="200" />

    <g fill="black" stroke="transparent">
        <path d="M177.596401,51.512387 A91.500000,91.500000 0 0 1 177.596401,148.487613 L152.000000,133.000000 L146.000000,123.000000 L134.000000,123.000000 L134.000000,77.000000 L146.000000,77.000000 L152.000000,67.000000 Z M22.403599,148.487613 A-91.500000,-91.500000 0 0 1 22.403599,51.512387 L48.000000,67.000000 L54.000000,77.000000 L66.000000,77.000000 L66.000000,123.000000 L54.000000,123.000000 L48.000000,133.000000 Z M75.500000,51.000000 L75.500000,149.000000 L87.500000,149.000000 L87.500000,51.000000 Z M94.000000,51.000000 L94.000000,149.000000 L106.000000,149.000000 L106.000000,51.000000 Z M112.500000,51.000000 L112.500000,77.000000 L114.000000,80.000000 L114.000000,149.000000 L123.000000,149.000000 L123.000000,80.000000 L124.500000,77.000000 L124.500000,51.000000 Z M128.000000,110.000000 L128.000000,123.000000 L131.000000,123.000000 L131.000000,110.000000 Z" />
        <path d="M23.850842,134.441509 A7.000000,7.000000 0 0 1 9.850842,134.441509 A7.000000,7.000000 0 0 1 23.850842,134.441509 Z M190.149158,65.558491 A7.000000,7.000000 0 0 1 176.149158,65.558491 A7.000000,7.000000 0 0 1 190.149158,65.558491 Z" />
    </g>
</svg>