<svg viewBox="0 0 200 200" xmlns="http://www.w3.org/2000/svg">
    <line x1="0" y1="0" x2="200" y2="0" />
    <line x1="0" y1="0" x2="0" y2="200" />

    <g fill="black" stroke="transparent">
        <path d="M155.858639,132.250000 A64.500000,64.500000 0 0 0 155.858639,67.750000 L179.241324,54.250000 A91.500000,91.500000 0 0 1 179.241324,145.750000 Z M53.015369,117.101007 L117.101007,53.015369 A50.000000,50.000000 0 0 0 56.698730,75.000000 L22.923739,55.500000 A89.000000,89.000000 0 0 0 14.888877,73.978918 L23.580391,76.638896 A17.048759,17.048759 0 0 1 20.684763,109.736070 L11.663393,110.846372 A89.000000,89.000000 0 0 0 16.367357,130.439793 Z M55.060298,121.918557 A50.000000,50.000000 0 0 0 62.842759,133.456530 L133.456530,62.842759 A50.000000,50.000000 0 0 0 121.918557,55.060298 Z M78.081443,144.939702 A50.000000,50.000000 0 0 1 66.543470,137.157241 L137.157241,66.543470 A50.000000,50.000000 0 0 1 144.939702,78.081443 Z M27.812035,92.853229 A9.500000,9.500000 0 0 1 8.812035,92.853229 A9.500000,9.500000 0 0 1 27.812035,92.853229 Z M146.984631,82.898993 A50.000000,50.000000 0 0 1 82.898993,146.984631 L82.898993,146.984631 L87.848740,142.034884 L86.434527,140.620670 L114.986415,112.068782 L116.400628,113.482996 Z" />
    </g>
</svg>