<svg viewBox="0 0 200 200" xmlns="http://www.w3.org/2000/svg">
    <line x1="0" y1="0" x2="200" y2="0" />
    <line x1="0" y1="0" x2="0" y2="200" />

    <g fill="black" stroke="transparent">
        <path d="M100,13 A87,87 0 0 0 52,27 L70,54 L54,70 L27,52 A87,87 0 0 0 27,148 L54,130 L66,143 A50,50 0 0 1 100,129 L100,116 A16,16 0 0 1 100,84 Z" />

        <path d="M115,50 A52,52 0 0 1 115,150 v-5.5 h-2 v-89 h2 Z" />

        <path d="M177,149 A91.5,91.5 0 0 0 177,51 L175,53 L173,51 L156,64.5 L157.5,66.5 L155,68 A64,64 0 0 1 155,132 Z" />
    </g>
</svg>