<svg viewBox="0 0 200 200" xmlns="http://www.w3.org/2000/svg">
    <g fill="transparent">
        <g transform-origin="center" transform="rotate(45)">
            <image href="../BB8 Ball Pattern.jpg" height="2550" width="3300" transform="scale(0.47169811320754716981132075471698, 0.47169811320754716981132075471698) translate(-1044,-277)"/>
        </g>
        <rect height="201" width="201" x="-0.5" y="-0.5" stroke-width="1" stroke="black" fill="transparent" />

        <g stroke="rgba(255, 0, 255, 0.2)">
            <line x1="10" x2="10" y1="0" y2="200" />
            <line x1="20" x2="20" y1="0" y2="200" />
            <line x1="30" x2="30" y1="0" y2="200" />
            <line x1="40" x2="40" y1="0" y2="200" />
            <line x1="50" x2="50" y1="0" y2="200" stroke="rgba(255, 0, 255, 0.5)" />
            <line x1="60" x2="60" y1="0" y2="200" />
            <line x1="70" x2="70" y1="0" y2="200" />
            <line x1="80" x2="80" y1="0" y2="200" />
            <line x1="90" x2="90" y1="0" y2="200" />
            <line x1="100" x2="100" y1="0" y2="200" stroke="rgba(255, 0, 255, 0.5)" />
            <line x1="110" x2="110" y1="0" y2="200" />
            <line x1="120" x2="120" y1="0" y2="200" />
            <line x1="130" x2="130" y1="0" y2="200" />
            <line x1="140" x2="140" y1="0" y2="200" />
            <line x1="150" x2="150" y1="0" y2="200" stroke="rgba(255, 0, 255, 0.5)" />
            <line x1="160" x2="160" y1="0" y2="200" />
            <line x1="170" x2="170" y1="0" y2="200" />
            <line x1="180" x2="180" y1="0" y2="200" />
            <line x1="190" x2="190" y1="0" y2="200" />

            <line y1="10" y2="10" x1="0" x2="200" />
            <line y1="20" y2="20" x1="0" x2="200" />
            <line y1="30" y2="30" x1="0" x2="200" />
            <line y1="40" y2="40" x1="0" x2="200" />
            <line y1="50" y2="50" x1="0" x2="200" stroke="rgba(255, 0, 255, 0.5)" />
            <line y1="60" y2="60" x1="0" x2="200" />
            <line y1="70" y2="70" x1="0" x2="200" />
            <line y1="80" y2="80" x1="0" x2="200" />
            <line y1="90" y2="90" x1="0" x2="200" />
            <line y1="100" y2="100" x1="0" x2="200" stroke="rgba(255, 0, 255, 0.5)" />
            <line y1="110" y2="110" x1="0" x2="200" />
            <line y1="120" y2="120" x1="0" x2="200" />
            <line y1="130" y2="130" x1="0" x2="200" />
            <line y1="140" y2="140" x1="0" x2="200" />
            <line y1="150" y2="150" x1="0" x2="200" stroke="rgba(255, 0, 255, 0.5)" />
            <line y1="160" y2="160" x1="0" x2="200" />
            <line y1="170" y2="170" x1="0" x2="200" />
            <line y1="180" y2="180" x1="0" x2="200" />
            <line y1="190" y2="190" x1="0" x2="200" />
        </g>

        <g  stroke="rgba(0, 255, 0, 0.2)" transform-origin="center">
            <line y1="100" y2="100" x1="0" x2="200" transform-origin="center" transform="rotate(-5)" />
            <line y1="100" y2="100" x1="0" x2="200" transform-origin="center" transform="rotate(-10)" />
            <line y1="100" y2="100" x1="0" x2="200" transform-origin="center" transform="rotate(-15)" stroke="rgba(0, 255, 0, 0.4)" />
            <line y1="100" y2="100" x1="0" x2="200" transform-origin="center" transform="rotate(-20)" />
            <line y1="100" y2="100" x1="0" x2="200" transform-origin="center" transform="rotate(-25)" />
            <line y1="100" y2="100" x1="0" x2="200" transform-origin="center" transform="rotate(-30)" stroke="rgba(0, 255, 0, 0.4)" />
            <line y1="100" y2="100" x1="0" x2="200" transform-origin="center" transform="rotate(-35)" />
            <line y1="100" y2="100" x1="0" x2="200" transform-origin="center" transform="rotate(-40)" />
            <line y1="100" y2="100" x1="0" x2="200" transform-origin="center" transform="rotate(-45)" stroke="rgba(0, 255, 0, 0.4)" />
            <line y1="100" y2="100" x1="0" x2="200" transform-origin="center" transform="rotate(-50)" />
            <line y1="100" y2="100" x1="0" x2="200" transform-origin="center" transform="rotate(-55)" />
            <line y1="100" y2="100" x1="0" x2="200" transform-origin="center" transform="rotate(-60)" stroke="rgba(0, 255, 0, 0.4)" />
            <line y1="100" y2="100" x1="0" x2="200" transform-origin="center" transform="rotate(-65)" />
            <line y1="100" y2="100" x1="0" x2="200" transform-origin="center" transform="rotate(-70)" />
            <line y1="100" y2="100" x1="0" x2="200" transform-origin="center" transform="rotate(-75)" stroke="rgba(0, 255, 0, 0.4)" />
            <line y1="100" y2="100" x1="0" x2="200" transform-origin="center" transform="rotate(-80)" />
            <line y1="100" y2="100" x1="0" x2="200" transform-origin="center" transform="rotate(-85)" />
            <line y1="100" y2="100" x1="0" x2="200" transform-origin="center" transform="rotate(-95)" />
            <line y1="100" y2="100" x1="0" x2="200" transform-origin="center" transform="rotate(-100)" />
            <line y1="100" y2="100" x1="0" x2="200" transform-origin="center" transform="rotate(-105)" stroke="rgba(0, 255, 0, 0.4)" />
            <line y1="100" y2="100" x1="0" x2="200" transform-origin="center" transform="rotate(-110)" />
            <line y1="100" y2="100" x1="0" x2="200" transform-origin="center" transform="rotate(-115)" />
            <line y1="100" y2="100" x1="0" x2="200" transform-origin="center" transform="rotate(-120)" stroke="rgba(0, 255, 0, 0.4)" />
            <line y1="100" y2="100" x1="0" x2="200" transform-origin="center" transform="rotate(-125)" />
            <line y1="100" y2="100" x1="0" x2="200" transform-origin="center" transform="rotate(-130)" />
            <line y1="100" y2="100" x1="0" x2="200" transform-origin="center" transform="rotate(-135)" stroke="rgba(0, 255, 0, 0.4)" />
            <line y1="100" y2="100" x1="0" x2="200" transform-origin="center" transform="rotate(-140)" />
            <line y1="100" y2="100" x1="0" x2="200" transform-origin="center" transform="rotate(-145)" />
            <line y1="100" y2="100" x1="0" x2="200" transform-origin="center" transform="rotate(-150)" stroke="rgba(0, 255, 0, 0.4)" />
            <line y1="100" y2="100" x1="0" x2="200" transform-origin="center" transform="rotate(-155)" />
            <line y1="100" y2="100" x1="0" x2="200" transform-origin="center" transform="rotate(-160)" />
            <line y1="100" y2="100" x1="0" x2="200" transform-origin="center" transform="rotate(-165)" stroke="rgba(0, 255, 0, 0.4)" />
            <line y1="100" y2="100" x1="0" x2="200" transform-origin="center" transform="rotate(-170)" />
            <line y1="100" y2="100" x1="0" x2="200" transform-origin="center" transform="rotate(-175)" />
        </g>

        <circle cx="18.5" cy="93.5" r="16.7" stroke="rgba(0, 0, 255, 0.375)" />
        <circle cx="100" cy="100" r="89" stroke="rgba(0, 0, 255, 0.375)" />
        <circle cx="100" cy="100" r="50" stroke="rgba(0, 0, 255, 0.375)" />
    </g>
    <g fill="transparent" stroke="red" style="opacity: 0.75">
        <path d="M155.858639,132.250000 A64.500000,64.500000 0 0 0 155.858639,67.750000 L179.241324,54.250000 A91.500000,91.500000 0 0 1 179.241324,145.750000 Z M53.015369,117.101007 L117.101007,53.015369 A50.000000,50.000000 0 0 0 56.698730,75.000000 L22.923739,55.500000 A89.000000,89.000000 0 0 0 14.888877,73.978918 L23.580391,76.638896 A17.048759,17.048759 0 0 1 20.684763,109.736070 L11.663393,110.846372 A89.000000,89.000000 0 0 0 16.367357,130.439793 Z M55.060298,121.918557 A50.000000,50.000000 0 0 0 62.842759,133.456530 L133.456530,62.842759 A50.000000,50.000000 0 0 0 121.918557,55.060298 Z M78.081443,144.939702 A50.000000,50.000000 0 0 1 66.543470,137.157241 L137.157241,66.543470 A50.000000,50.000000 0 0 1 144.939702,78.081443 Z M27.812035,92.853229 A9.500000,9.500000 0 0 1 8.812035,92.853229 A9.500000,9.500000 0 0 1 27.812035,92.853229 Z M146.984631,82.898993 A50.000000,50.000000 0 0 1 82.898993,146.984631 L82.898993,146.984631 L87.848740,142.034884 L86.434527,140.620670 L114.986415,112.068782 L116.400628,113.482996 Z" />
    </g>

</svg>