<svg viewBox="0 0 200 200" xmlns="http://www.w3.org/2000/svg">
    <line x1="0" y1="0" x2="200" y2="0" />
    <line x1="0" y1="0" x2="0" y2="200" />

    <g fill="black" stroke="transparent">
        <path d="M90.000000,123.000000 A13.000000,13.000000 0 0 1 64.000000,123.000000 A13.000000,13.000000 0 0 1 90.000000,123.000000 Z M153.500000,100.000000 A53.500000,53.500000 0 0 0 46.500000,100.000000 L54.500000,100.000000 A32.500000,32.500000 0 0 1 119.500000,100.000000 L136.500000,100.000000 A42.500000,42.500000 0 0 0 115.250000,63.193920 L118.000000,58.430781 A48.000000,48.000000 0 0 1 142.000000,100.000000 Z" />
    </g>
</svg>