<svg viewBox="0 0 200 200" xmlns="http://www.w3.org/2000/svg">
    <line x1="0" y1="0" x2="200" y2="0" />
    <line x1="0" y1="0" x2="0" y2="200" />

    <g fill="black" stroke="transparent">
        <path d="M131.294843,185.981875 A91.500000,91.500000 0 0 1 84.111192,190.109909 L71.681986,121.209040 L118.099800,112.835611 Z M15.481490,77.353334 A87.500000,87.500000 0 0 1 24.222777,56.250000 L56.698730,75.000000 A50.000000,50.000000 0 0 1 75.000000,56.698730 L56.250000,24.222777 A87.500000,87.500000 0 0 1 100.000000,12.500000 L105.160803,41.108730 A15.000000,15.000000 0 0 0 110.486619,70.632207 L117.212164,107.915031 L70.794350,116.288460 L65.070254,112.259227 L63.919044,113.894683 L20.054377,83.018023 L21.205587,81.382567 Z M162.353829,136.000000 A72.000000,72.000000 0 0 0 164.152470,132.687316 L181.527097,141.540131 A91.500000,91.500000 0 0 1 179.241324,145.750000 Z M168.667620,121.650818 A72.000000,72.000000 0 0 0 169.706630,118.027360 L188.585509,122.909770 A91.500000,91.500000 0 0
1 187.265101,127.514581 Z M171.726018,106.275213 A72.000000,72.000000 0 0 0 171.956140,102.512764 L191.444261,103.193304 A91.500000,91.500000 0 0 1 191.151815,107.974750 Z M171.384030,90.602114 A72.000000,72.000000 0 0 0 170.794353,86.879042 L189.967824,83.325449
A91.500000,91.500000 0 0 1 190.717205,88.056853 Z" />
    </g>
</svg>