<svg viewBox="0 0 178 178" xmlns="http://www.w3.org/2000/svg">
    <path d="M-27.7,0 l61.7,49 c2,1.1 3,1.1 5,0, l10,-10 c1.1,-2 1.1,-3 0,-5 l-49,-61.7z" />
    <path d="M-27.7,0 l61.7,49 c2,1.1 3,1.1 5,0, l10,-10 c1.1,-2 1.1,-3 0,-5 l-49,-61.7z" transform="translate(178,0) rotate(90)" />
    <path d="M-27.7,0 l61.7,49 c2,1.1 3,1.1 5,0, l10,-10 c1.1,-2 1.1,-3 0,-5 l-49,-61.7z" transform="translate(178,178) rotate(180)" />
    <path d="M-27.7,0 l61.7,49 c2,1.1 3,1.1 5,0, l10,-10 c1.1,-2 1.1,-3 0,-5 l-49,-61.7z" transform="translate(0,178) rotate(270)" />
</svg>