<svg viewBox="0 0 200 200" xmlns="http://www.w3.org/2000/svg">
    <g fill="transparent">
        <g transform-origin="center" transform="rotate(45)">
            <image href="../BB8 Ball Pattern.jpg" height="2550" width="3300" transform="scale(0.47169811320754716981132075471698, 0.47169811320754716981132075471698) translate(-1044,-277)"/>
        </g>
        <rect height="201" width="201" x="-0.5" y="-0.5" stroke-width="1" stroke="black" fill="transparent" />

        <g >
            <line x1="10" x2="10" y1="0" y2="200" stroke="rgba(255, 0, 255, 0.2)" />
            <line x1="20" x2="20" y1="0" y2="200" stroke="rgba(255, 0, 255, 0.2)" />
            <line x1="30" x2="30" y1="0" y2="200" stroke="rgba(255, 0, 255, 0.2)" />
            <line x1="40" x2="40" y1="0" y2="200" stroke="rgba(255, 0, 255, 0.2)" />
            <line x1="50" x2="50" y1="0" y2="200" stroke="rgba(255, 0, 255, 0.5)" />
            <line x1="60" x2="60" y1="0" y2="200" stroke="rgba(255, 0, 255, 0.2)" />
            <line x1="70" x2="70" y1="0" y2="200" stroke="rgba(255, 0, 255, 0.2)" />
            <line x1="80" x2="80" y1="0" y2="200" stroke="rgba(255, 0, 255, 0.2)" />
            <line x1="90" x2="90" y1="0" y2="200" stroke="rgba(255, 0, 255, 0.2)" />
            <line x1="100" x2="100" y1="0" y2="200" stroke="rgba(255, 0, 255, 0.5)" />
            <line x1="110" x2="110" y1="0" y2="200" stroke="rgba(255, 0, 255, 0.2)" />
            <line x1="120" x2="120" y1="0" y2="200" stroke="rgba(255, 0, 255, 0.2)" />
            <line x1="130" x2="130" y1="0" y2="200" stroke="rgba(255, 0, 255, 0.2)" />
            <line x1="140" x2="140" y1="0" y2="200" stroke="rgba(255, 0, 255, 0.2)" />
            <line x1="150" x2="150" y1="0" y2="200" stroke="rgba(255, 0, 255, 0.5)" />
            <line x1="160" x2="160" y1="0" y2="200" stroke="rgba(255, 0, 255, 0.2)" />
            <line x1="170" x2="170" y1="0" y2="200" stroke="rgba(255, 0, 255, 0.2)" />
            <line x1="180" x2="180" y1="0" y2="200" stroke="rgba(255, 0, 255, 0.2)" />
            <line x1="190" x2="190" y1="0" y2="200" stroke="rgba(255, 0, 255, 0.2)" />

            <line y1="10" y2="10" x1="0" x2="200" stroke="rgba(255, 0, 255, 0.2)" />
            <line y1="20" y2="20" x1="0" x2="200" stroke="rgba(255, 0, 255, 0.2)" />
            <line y1="30" y2="30" x1="0" x2="200" stroke="rgba(255, 0, 255, 0.2)" />
            <line y1="40" y2="40" x1="0" x2="200" stroke="rgba(255, 0, 255, 0.2)" />
            <line y1="50" y2="50" x1="0" x2="200" stroke="rgba(255, 0, 255, 0.5)" />
            <line y1="60" y2="60" x1="0" x2="200" stroke="rgba(255, 0, 255, 0.2)" />
            <line y1="70" y2="70" x1="0" x2="200" stroke="rgba(255, 0, 255, 0.2)" />
            <line y1="80" y2="80" x1="0" x2="200" stroke="rgba(255, 0, 255, 0.2)" />
            <line y1="90" y2="90" x1="0" x2="200" stroke="rgba(255, 0, 255, 0.2)" />
            <line y1="100" y2="100" x1="0" x2="200" stroke="rgba(255, 0, 255, 0.5)" />
            <line y1="110" y2="110" x1="0" x2="200" stroke="rgba(255, 0, 255, 0.2)" />
            <line y1="120" y2="120" x1="0" x2="200" stroke="rgba(255, 0, 255, 0.2)" />
            <line y1="130" y2="130" x1="0" x2="200" stroke="rgba(255, 0, 255, 0.2)" />
            <line y1="140" y2="140" x1="0" x2="200" stroke="rgba(255, 0, 255, 0.2)" />
            <line y1="150" y2="150" x1="0" x2="200" stroke="rgba(255, 0, 255, 0.5)" />
            <line y1="160" y2="160" x1="0" x2="200" stroke="rgba(255, 0, 255, 0.2)" />
            <line y1="170" y2="170" x1="0" x2="200" stroke="rgba(255, 0, 255, 0.2)" />
            <line y1="180" y2="180" x1="0" x2="200" stroke="rgba(255, 0, 255, 0.2)" />
            <line y1="190" y2="190" x1="0" x2="200" stroke="rgba(255, 0, 255, 0.2)" />
        </g>

        <circle cx="18.5" cy="93.5" r="16.7" stroke="rgba(0, 0, 255, 0.375)" />
        <circle cx="100" cy="100" r="89" stroke="rgba(0, 0, 255, 0.375)" />
        <circle cx="100" cy="100" r="50" stroke="rgba(0, 0, 255, 0.375)" />
    </g>
    <g fill="transparent" stroke="red" style="opacity: 0.75">
        <circle cx="18.5" cy="93.5" r="9.5" />

        <path d="M22.5,56.5 A89,89 0 0 0 14.7,75 l7,2 A16.7,16.7 0,0,1 20,110 l-8.2,1.5  A89,89 0 0 0 16.8,131.5 L53,117.5 L117.5,53.5 A50,50, 0 0 0 56.5,75.5 Z" />

        <path d="M55.5,123 A50,50 0 0 0 63,133.5 L133.5,63 A50,50 0 0 0 123,55.5 Z" />
        <path d="M67,137 A50,50 0 0 0 77.5,144.5 L144.5,77.5 A50,50 0 0 0 137,67 Z" />

        <path d="M82.5,146.6 A50,50 0 0 0 146.6,82.5 L142,87 L141,86 L86,141 L87,142 Z" />

    </g>
</svg>