<svg viewBox="0 0 200 200" xmlns="http://www.w3.org/2000/svg">
    <g fill="transparent">
        <g transform-origin="center" transform="scale(0.94240837696335078534031413612565) rotate(0)">
            <image href="../BB8 Ball Pattern.jpg" height="2550" width="3300" transform="scale(0.47169811320754716981132075471698, 0.47169811320754716981132075471698) translate(-1044,-1062)"/>
        </g>
        <rect height="201" width="201" x="-0.5" y="-0.5" stroke-width="1" stroke="black" fill="transparent" />

        <g >
            <line x1="10" x2="10" y1="0" y2="200" stroke="rgba(255, 0, 255, 0.2)" />
            <line x1="20" x2="20" y1="0" y2="200" stroke="rgba(255, 0, 255, 0.2)" />
            <line x1="30" x2="30" y1="0" y2="200" stroke="rgba(255, 0, 255, 0.2)" />
            <line x1="40" x2="40" y1="0" y2="200" stroke="rgba(255, 0, 255, 0.2)" />
            <line x1="50" x2="50" y1="0" y2="200" stroke="rgba(255, 0, 255, 0.5)" />
            <line x1="60" x2="60" y1="0" y2="200" stroke="rgba(255, 0, 255, 0.2)" />
            <line x1="70" x2="70" y1="0" y2="200" stroke="rgba(255, 0, 255, 0.2)" />
            <line x1="80" x2="80" y1="0" y2="200" stroke="rgba(255, 0, 255, 0.2)" />
            <line x1="90" x2="90" y1="0" y2="200" stroke="rgba(255, 0, 255, 0.2)" />
            <line x1="100" x2="100" y1="0" y2="200" stroke="rgba(255, 0, 255, 0.5)" />
            <line x1="110" x2="110" y1="0" y2="200" stroke="rgba(255, 0, 255, 0.2)" />
            <line x1="120" x2="120" y1="0" y2="200" stroke="rgba(255, 0, 255, 0.2)" />
            <line x1="130" x2="130" y1="0" y2="200" stroke="rgba(255, 0, 255, 0.2)" />
            <line x1="140" x2="140" y1="0" y2="200" stroke="rgba(255, 0, 255, 0.2)" />
            <line x1="150" x2="150" y1="0" y2="200" stroke="rgba(255, 0, 255, 0.5)" />
            <line x1="160" x2="160" y1="0" y2="200" stroke="rgba(255, 0, 255, 0.2)" />
            <line x1="170" x2="170" y1="0" y2="200" stroke="rgba(255, 0, 255, 0.2)" />
            <line x1="180" x2="180" y1="0" y2="200" stroke="rgba(255, 0, 255, 0.2)" />
            <line x1="190" x2="190" y1="0" y2="200" stroke="rgba(255, 0, 255, 0.2)" />

            <line y1="10" y2="10" x1="0" x2="200" stroke="rgba(255, 0, 255, 0.2)" />
            <line y1="20" y2="20" x1="0" x2="200" stroke="rgba(255, 0, 255, 0.2)" />
            <line y1="30" y2="30" x1="0" x2="200" stroke="rgba(255, 0, 255, 0.2)" />
            <line y1="40" y2="40" x1="0" x2="200" stroke="rgba(255, 0, 255, 0.2)" />
            <line y1="50" y2="50" x1="0" x2="200" stroke="rgba(255, 0, 255, 0.5)" />
            <line y1="60" y2="60" x1="0" x2="200" stroke="rgba(255, 0, 255, 0.2)" />
            <line y1="70" y2="70" x1="0" x2="200" stroke="rgba(255, 0, 255, 0.2)" />
            <line y1="80" y2="80" x1="0" x2="200" stroke="rgba(255, 0, 255, 0.2)" />
            <line y1="90" y2="90" x1="0" x2="200" stroke="rgba(255, 0, 255, 0.2)" />
            <line y1="100" y2="100" x1="0" x2="200" stroke="rgba(255, 0, 255, 0.5)" />
            <line y1="110" y2="110" x1="0" x2="200" stroke="rgba(255, 0, 255, 0.2)" />
            <line y1="120" y2="120" x1="0" x2="200" stroke="rgba(255, 0, 255, 0.2)" />
            <line y1="130" y2="130" x1="0" x2="200" stroke="rgba(255, 0, 255, 0.2)" />
            <line y1="140" y2="140" x1="0" x2="200" stroke="rgba(255, 0, 255, 0.2)" />
            <line y1="150" y2="150" x1="0" x2="200" stroke="rgba(255, 0, 255, 0.5)" />
            <line y1="160" y2="160" x1="0" x2="200" stroke="rgba(255, 0, 255, 0.2)" />
            <line y1="170" y2="170" x1="0" x2="200" stroke="rgba(255, 0, 255, 0.2)" />
            <line y1="180" y2="180" x1="0" x2="200" stroke="rgba(255, 0, 255, 0.2)" />
            <line y1="190" y2="190" x1="0" x2="200" stroke="rgba(255, 0, 255, 0.2)" />
        </g>

        <circle cx="100" cy="100" r="90" stroke="rgba(0, 0, 255, 0.375)" />
        <circle cx="100" cy="100" r="87.5" stroke="rgba(0, 0, 255, 0.375)" stroke-width="0.5" />
        <circle cx="100" cy="100" r="82.5" stroke="rgba(0, 0, 255, 0.375)" />
        <circle cx="100" cy="100" r="69" stroke="rgba(0, 0, 255, 0.375)" stroke-width="0.5" />
        <circle cx="100" cy="100" r="50" stroke="rgba(0, 0, 255, 0.375)" stroke-width="0.5" />
    </g>
    <g fill="transparent" stroke="red" style="opacity: 0.75">
        <path d="M79,123 L121,123 L121,187 A90,90 0 0 1 79,187 Z" />

        <path d="M79,117 L121,117 L121,76 A16.5,16.5 0,0,1 121,43 L121,20 A82.5,82.5 0,0,0 55.5,30 L73,58 A50,50 0 0 0 58,73 L30,55.5 A82.5,82.5 0 0 0 19.5,81 L25,84 L23.5,86.5 L73,116 L74.5,113.5 Z" />

        <path transform-origin="center" transform="rotate(-2.75)" d="M169,100 A69,69 0 0 0 169,96 L187.3,95 A87.5,87.5 0 0 1 187.5,100 Z" />
        <path transform-origin="center" transform="rotate(8)" d="M169,100 A69,69 0 0 0 169,96 L187.3,95 A87.5,87.5 0 0 1 187.5,100 Z" />
        <path transform-origin="center" transform="rotate(18.75)" d="M169,100 A69,69 0 0 0 169,96 L187.3,95 A87.5,87.5 0 0 1 187.5,100 Z" />
        <path transform-origin="center" transform="rotate(29.5)" d="M169,100 A69,69 0 0 0 169,96 L187.3,95 A87.5,87.5 0 0 1 187.5,100 Z" />
    </g>
</svg>