<svg viewBox="0 0 200 200" xmlns="http://www.w3.org/2000/svg">
    <line x1="0" y1="0" x2="200" y2="0" />
    <line x1="0" y1="0" x2="0" y2="200" />

    <g fill="black" stroke="transparent">
        <path d="M90,100 L92.5,108 L62,138 A53.75,53.75 0 0 0 146.5,126.5 L179.5,145.5 A91.5,91.5 0 0 0 185,135 L182.5,130 L186.5,112 L191,109 A91.5,91.5 0 0 0 179,54 L146.5,73 A53.5,53.5 0 0 0 133.5,58 L116,80 L107,80 Z" />
        <path d="M140,18 A91.5,91.5 0 0 0 60,18 L72,42 A64,64 0 0 1 128,42 Z" />

        <path d="M8,100 A91.5,91.5 0 0 0 26,154 L48.6,137.5 A64,64 0 0 1 36,100 Z" />
        <path d="M25,92 A75,75 0 0 1 30,74 L25,72 A80,80 0 0 0 20.5,91 Z" />
        <path d="M36.5,93 A64,64 0 0 1 40,78 L35.5,76 A69,69 0 0 0 31.5,92.5 Z" />
    </g>
</svg>