<svg viewBox="0 0 200 200" xmlns="http://www.w3.org/2000/svg">
    <line x1="0" y1="0" x2="200" y2="0" />
    <line x1="0" y1="0" x2="0" y2="200" />

    <g fill="black" stroke="transparent">
        <path d="M137.830213,62.169787 A53.500000,53.500000 0 0 1 146.332359,73.250000 L179.241324,54.250000 A91.500000,91.500000 0 0 1 191.151815,107.974750 L186.668939,107.582550 A87.000000,87.000000 0 0 1 181.753258,129.755752 L185.981875,131.294843 A91.500000,91.500000 0 0 1 179.241324,145.750000 L146.332359,126.750000 A53.500000,53.500000 0 0 1 62.169787,137.830213 L92.928932,107.071068 L91.267231,97.419060 L110.342851,78.343441 L115.171683,79.171463 L122.166383,72.176762 L121.338361,67.347930 L132.173359,56.512933 Z M55.452273,144.547727 A63.000000,63.000000 0 0 1 37.000000,100.000000 L8.500000,100.000000 A91.500000,91.500000 0 0 0 35.299730,164.700270 Z M37.239734,94.509188 A63.000000,63.000000 0 0 1 40.799365,78.452731 L35.161209,76.400610 A69.000000,69.000000 0 0 0 31.262566,93.986254 Z M25.285398,93.463319 A75.000000,75.000000 0 0 1 29.523053,74.348489 L23.884898,72.296368 A81.000000,81.000000 0 0 0 19.308229,92.940385 Z M71.398599,43.866589 A63.000000,63.000000 0 0 1 128.601401,43.866589 L141.540131,18.472903 A91.500000,91.500000 0 0 0 58.459869,18.472903 Z" />
    </g>
</svg>