<svg viewBox="0 0 200 200" xmlns="http://www.w3.org/2000/svg">
    <line x1="0" y1="0" x2="200" y2="0" />
    <line x1="0" y1="0" x2="0" y2="200" />

    <g fill="black" stroke="transparent">
        <path d="M79,123 L121,123 L121,187 A90,90 0 0 1 79,187 Z" />

        <path d="M79,117 L121,117 L121,76 A16.5,16.5 0,0,1 121,43 L121,20 A82.5,82.5 0,0,0 55.5,30 L73,58 A50,50 0 0 0 58,73 L30,55.5 A82.5,82.5 0 0 0 19.5,81 L25,84 L23.5,86.5 L73,116 L74.5,113.5 Z" />

        <path transform-origin="center" transform="rotate(-2.75)" d="M169,100 A69,69 0 0 0 169,96 L187.3,95 A87.5,87.5 0 0 1 187.5,100 Z" />
        <path transform-origin="center" transform="rotate(8)" d="M169,100 A69,69 0 0 0 169,96 L187.3,95 A87.5,87.5 0 0 1 187.5,100 Z" />
        <path transform-origin="center" transform="rotate(18.75)" d="M169,100 A69,69 0 0 0 169,96 L187.3,95 A87.5,87.5 0 0 1 187.5,100 Z" />
        <path transform-origin="center" transform="rotate(29.5)" d="M169,100 A69,69 0 0 0 169,96 L187.3,95 A87.5,87.5 0 0 1 187.5,100 Z" />
    </g>
</svg>