<svg viewBox="0 0 200 200" xmlns="http://www.w3.org/2000/svg">
    <line x1="0" y1="0" x2="200" y2="0" />
    <line x1="0" y1="0" x2="0" y2="200" />

    <g fill="black" stroke="transparent">
        <circle cx="18.5" cy="93.5" r="9.5" />

        <path d="M22.5,56.5 A89,89 0 0 0 14.7,75 l7,2 A16.7,16.7 0,0,1 20,110 l-8.2,1.5  A89,89 0 0 0 16.8,131.5 L53,117.5 L117.5,53.5 A50,50, 0 0 0 56.5,75.5 Z" />

        <path d="M55.5,123 A50,50 0 0 0 63,133.5 L133.5,63 A50,50 0 0 0 123,55.5 Z" />
        <path d="M67,137 A50,50 0 0 0 77.5,144.5 L144.5,77.5 A50,50 0 0 0 137,67 Z" />

        <path d="M82.5,146.6 A50,50 0 0 0 146.6,82.5 L142,87 L141,86 L86,141 L87,142 Z" />

    </g>
</svg>